# xmcd
#
# Track frame offsets:
#	150
#	19821
#	35377
#	60497
#	77056
#	87440
#	104252
#	117339
#	134409
#	152260
#	166947
#	183333
#	196082
#	209692
#	225604
#	240523
#	256126
#	278022
#	297547
#	314108
#
# Disc length: 4395 seconds
#
# Revision: 1
# Processed by: cddbd v1.5.2PL0 Copyright (c) Steve Scherf et al.
# Submitted via: dBpowerAMP V4.0
#
DISCID=13112914
DTITLE=Various Artist - Hott Urban Volume 20 Can
DYEAR=2016
DGENRE=Urban
TTITLE0=Bruno Mars - Versace On The Floor
TTITLE1=Rihanna - Sex With Me
TTITLE2=Migos ft. Lil Uzi Vert - Bad And Boujee
TTITLE3=Beyonce - All Night
TTITLE4=DJ Suede The Remix God - You Name It! (#unameitchallenge)
TTITLE5=DJ Esco ft. Future And Lil Uzi Vert - Too Much Sauce
TTITLE6=A Tribe Called Quest - We The People...
TTITLE7=Fat Joe and Remy Ma  - Money Showers
TTITLE8=Young Thug - Wyclef Jean
TTITLE9=Nebu Kiniza - Gassed Up
TTITLE10=Nick Grant ft. Watchtheduck - Get Up
TTITLE11=Khalid - Hopeless
TTITLE12=Future ft. Drake - Used To This
TTITLE13=A.Chal - Round Whippin'
TTITLE14=Kap G - Girlfriend
TTITLE15=Post Malone ft. Quavo - Congratulations
TTITLE16=Eric Benet - Insane
TTITLE17=21 Savage and Metro Boomin ft. Future - X
TTITLE18=Wyclef Jean ft. Young Thug - I Swear
TTITLE19=Childish Gambino - Redbone
EXTD=
EXTT0=
EXTT1=
EXTT2=
EXTT3=
EXTT4=
EXTT5=
EXTT6=
EXTT7=
EXTT8=
EXTT9=
EXTT10=
EXTT11=
EXTT12=
EXTT13=
EXTT14=
EXTT15=
EXTT16=
EXTT17=
EXTT18=
EXTT19=
PLAYORDER=
